<svg width="40" height="40" viewBox="0 0 40 40" fill="none" xmlns="http://www.w3.org/2000/svg">
<g id="Instagram">
<path id="Vector" d="M12.9999 3.33333H26.9999C32.3333 3.33333 36.6666 7.66667 36.6666 13V27C36.6666 29.5638 35.6481 32.0225 33.8353 33.8354C32.0224 35.6482 29.5637 36.6667 26.9999 36.6667H12.9999C7.66659 36.6667 3.33325 32.3333 3.33325 27V13C3.33325 10.4362 4.3517 7.97749 6.16455 6.16464C7.9774 4.35178 10.4362 3.33333 12.9999 3.33333ZM12.6666 6.66667C11.0753 6.66667 9.54916 7.29881 8.42394 8.42403C7.29873 9.54924 6.66659 11.0754 6.66659 12.6667V27.3333C6.66659 30.65 9.34992 33.3333 12.6666 33.3333H27.3333C28.9245 33.3333 30.4507 32.7012 31.5759 31.576C32.7011 30.4508 33.3333 28.9246 33.3333 27.3333V12.6667C33.3333 9.35 30.6499 6.66667 27.3333 6.66667H12.6666ZM28.7499 9.16667C29.3025 9.16667 29.8324 9.38616 30.2231 9.77686C30.6138 10.1676 30.8333 10.6975 30.8333 11.25C30.8333 11.8025 30.6138 12.3324 30.2231 12.7231C29.8324 13.1138 29.3025 13.3333 28.7499 13.3333C28.1974 13.3333 27.6675 13.1138 27.2768 12.7231C26.8861 12.3324 26.6666 11.8025 26.6666 11.25C26.6666 10.6975 26.8861 10.1676 27.2768 9.77686C27.6675 9.38616 28.1974 9.16667 28.7499 9.16667ZM19.9999 11.6667C22.2101 11.6667 24.3297 12.5446 25.8925 14.1074C27.4553 15.6702 28.3333 17.7899 28.3333 20C28.3333 22.2101 27.4553 24.3298 25.8925 25.8926C24.3297 27.4554 22.2101 28.3333 19.9999 28.3333C17.7898 28.3333 15.6702 27.4554 14.1074 25.8926C12.5446 24.3298 11.6666 22.2101 11.6666 20C11.6666 17.7899 12.5446 15.6702 14.1074 14.1074C15.6702 12.5446 17.7898 11.6667 19.9999 11.6667ZM19.9999 15C18.6738 15 17.4021 15.5268 16.4644 16.4645C15.5267 17.4021 14.9999 18.6739 14.9999 20C14.9999 21.3261 15.5267 22.5979 16.4644 23.5355C17.4021 24.4732 18.6738 25 19.9999 25C21.326 25 22.5978 24.4732 23.5355 23.5355C24.4731 22.5979 24.9999 21.3261 24.9999 20C24.9999 18.6739 24.4731 17.4021 23.5355 16.4645C22.5978 15.5268 21.326 15 19.9999 15Z" fill="url(#paint0_linear_94_1003)"/>
</g>
<defs>
<linearGradient id="paint0_linear_94_1003" x1="19.9999" y1="3.33333" x2="19.9999" y2="36.6667" gradientUnits="userSpaceOnUse">
<stop stop-color="#D4FF00"/>
<stop offset="1" stop-color="#7DFFE0"/>
</linearGradient>
</defs>
</svg>
