<svg width="40" height="41" viewBox="0 0 40 41" fill="none" xmlns="http://www.w3.org/2000/svg">
<g id="Logo">
<path id="Vector" d="M30 2.99998C31.1021 3.00111 32.1903 3.24509 33.1874 3.71456C34.1844 4.18404 35.0658 4.86748 35.7687 5.71625C36.4716 6.56503 36.9788 7.55828 37.2543 8.62536C37.5297 9.69243 37.5667 10.8071 37.3624 11.8901C37.1581 12.973 36.7177 13.9976 36.0725 14.8911C35.4273 15.7845 34.5931 16.5247 33.6293 17.0591C32.6655 17.5936 31.5957 17.909 30.4962 17.983C29.3966 18.0571 28.2942 17.8879 27.2675 17.4875L18.75 28.835V35.5H22.5C22.8315 35.5 23.1495 35.6317 23.3839 35.8661C23.6183 36.1005 23.75 36.4185 23.75 36.75C23.75 37.0815 23.6183 37.3994 23.3839 37.6339C23.1495 37.8683 22.8315 38 22.5 38H12.5C12.1685 38 11.8505 37.8683 11.6161 37.6339C11.3817 37.3994 11.25 37.0815 11.25 36.75C11.25 36.4185 11.3817 36.1005 11.6161 35.8661C11.8505 35.6317 12.1685 35.5 12.5 35.5H16.25V28.835L3 11.185C2.67544 10.7522 2.5 10.2259 2.5 9.68498V9.26748C2.5 8.93596 2.6317 8.61802 2.86612 8.3836C3.10054 8.14918 3.41848 8.01748 3.75 8.01748H6.555L3.995 4.74248C3.79078 4.48125 3.69871 4.14958 3.73903 3.82046C3.77935 3.49133 3.94876 3.1917 4.21 2.98748C4.47124 2.78327 4.8029 2.69119 5.13203 2.73151C5.46115 2.77183 5.76078 2.94125 5.965 3.20248L9.725 8.01748H22.9175C23.4325 6.55032 24.3907 5.27942 25.6595 4.38056C26.9283 3.48169 28.4451 2.99926 30 2.99998ZM25.66 8.01748H31.25C31.5815 8.01748 31.8995 8.14918 32.1339 8.3836C32.3683 8.61802 32.5 8.93596 32.5 9.26748V9.68248C32.5 10.2234 32.3246 10.7497 32 11.1825L28.8575 15.37C29.7604 15.5815 30.7044 15.5378 31.5839 15.2436C32.4635 14.9495 33.2438 14.4165 33.8378 13.7043C34.4318 12.9921 34.8161 12.1288 34.9476 11.2107C35.079 10.2927 34.9526 9.3562 34.5824 8.5059C34.2122 7.6556 33.6128 6.92501 32.8513 6.3958C32.0897 5.86659 31.1959 5.55962 30.2699 5.50921C29.3439 5.45879 28.4221 5.66691 27.6075 6.11031C26.793 6.5537 26.1178 7.2149 25.6575 8.01998V8.01748H25.66ZM11.68 10.5175L16.7375 16.9925C16.9302 17.2546 17.0131 17.5814 16.9686 17.9037C16.9241 18.2259 16.7558 18.5181 16.4994 18.7182C16.243 18.9184 15.9186 19.0107 15.5953 18.9755C15.2719 18.9404 14.9749 18.7805 14.7675 18.53L8.5075 10.5175H5.625L17.5 26.335L29.375 10.5175H11.68Z" fill="url(#paint0_linear_227_50)"/>
</g>
<defs>
<linearGradient id="paint0_linear_227_50" x1="19.9962" y1="2.72223" x2="19.9962" y2="38" gradientUnits="userSpaceOnUse">
<stop stop-color="#D4FF00"/>
<stop offset="1" stop-color="#7DFFE0"/>
</linearGradient>
</defs>
</svg>
