<svg width="40" height="40" viewBox="0 0 40 40" fill="none" xmlns="http://www.w3.org/2000/svg">
<g id="Mail">
<path id="Vector" d="M6.66659 33.3333C5.74992 33.3333 4.96492 33.0067 4.31159 32.3533C3.65825 31.7 3.33214 30.9156 3.33325 30V10C3.33325 9.08333 3.65992 8.29833 4.31325 7.645C4.96659 6.99167 5.75103 6.66556 6.66659 6.66667H33.3333C34.2499 6.66667 35.0349 6.99333 35.6883 7.64667C36.3416 8.3 36.6677 9.08444 36.6666 10V30C36.6666 30.9167 36.3399 31.7017 35.6866 32.355C35.0333 33.0083 34.2488 33.3344 33.3333 33.3333H6.66659ZM19.9999 21.6667L33.3333 13.3333V10L19.9999 18.3333L6.66659 10V13.3333L19.9999 21.6667Z" fill="url(#paint0_linear_94_1007)"/>
</g>
<defs>
<linearGradient id="paint0_linear_94_1007" x1="19.9999" y1="6.66666" x2="19.9999" y2="33.3333" gradientUnits="userSpaceOnUse">
<stop stop-color="#D4FF00"/>
<stop offset="1" stop-color="#7DFFE0"/>
</linearGradient>
</defs>
</svg>
