<svg width="48" height="48" viewBox="0 0 48 48" fill="none" xmlns="http://www.w3.org/2000/svg">
<g id="Quit">
<path id="Vector" d="M39.0919 35.9081C39.5146 36.3308 39.752 36.9041 39.752 37.5019C39.752 38.0996 39.5146 38.6729 39.0919 39.0956C38.6692 39.5183 38.0959 39.7558 37.4981 39.7558C36.9004 39.7558 36.3271 39.5183 35.9044 39.0956L24 27.1875L12.0919 39.0919C11.6692 39.5146 11.0959 39.752 10.4981 39.752C9.90036 39.752 9.32707 39.5146 8.90439 39.0919C8.4817 38.6692 8.24423 38.0959 8.24423 37.4981C8.24423 36.9003 8.4817 36.3271 8.90439 35.9044L20.8125 24L8.90813 12.0919C8.48545 11.6692 8.24798 11.0959 8.24798 10.4981C8.24798 9.90035 8.48545 9.32706 8.90813 8.90437C9.33082 8.48168 9.90411 8.24421 10.5019 8.24421C11.0997 8.24421 11.6729 8.48168 12.0956 8.90437L24 20.8125L35.9081 8.90249C36.3308 8.4798 36.9041 8.24234 37.5019 8.24234C38.0997 8.24234 38.6729 8.4798 39.0956 8.90249C39.5183 9.32518 39.7558 9.89847 39.7558 10.4962C39.7558 11.094 39.5183 11.6673 39.0956 12.09L27.1875 24L39.0919 35.9081Z" fill="white"/>
</g>
</svg>
