<svg width="45" height="45" viewBox="0 0 45 45" fill="none" xmlns="http://www.w3.org/2000/svg">
<g id="material-symbols:favorite-outline">
<path id="Vector" d="M22.5 39.375L19.7812 36.9375C16.625 34.0938 14.0156 31.6406 11.9531 29.5781C9.89062 27.5156 8.25 25.6638 7.03125 24.0225C5.8125 22.3825 4.96125 20.875 4.4775 19.5C3.99375 18.125 3.75125 16.7187 3.75 15.2812C3.75 12.3437 4.73438 9.89062 6.70312 7.92187C8.67188 5.95312 11.125 4.96875 14.0625 4.96875C15.6875 4.96875 17.2344 5.3125 18.7031 6C20.1719 6.6875 21.4375 7.65625 22.5 8.90625C23.5625 7.65625 24.8281 6.6875 26.2969 6C27.7656 5.3125 29.3125 4.96875 30.9375 4.96875C33.875 4.96875 36.3281 5.95312 38.2969 7.92187C40.2656 9.89062 41.25 12.3437 41.25 15.2812C41.25 16.7187 41.0075 18.125 40.5225 19.5C40.0375 20.875 39.1862 22.3825 37.9688 24.0225C36.75 25.6638 35.1094 27.5156 33.0469 29.5781C30.9844 31.6406 28.375 34.0938 25.2188 36.9375L22.5 39.375ZM22.5 34.3125C25.5 31.625 27.9688 29.32 29.9062 27.3975C31.8438 25.475 33.375 23.8038 34.5 22.3838C35.625 20.9613 36.4062 19.695 36.8438 18.585C37.2812 17.475 37.5 16.3737 37.5 15.2812C37.5 13.4062 36.875 11.8438 35.625 10.5938C34.375 9.34375 32.8125 8.71875 30.9375 8.71875C29.4688 8.71875 28.1094 9.1325 26.8594 9.96C25.6094 10.7875 24.75 11.8425 24.2812 13.125H20.7188C20.25 11.8438 19.3906 10.7887 18.1406 9.96C16.8906 9.13125 15.5312 8.7175 14.0625 8.71875C12.1875 8.71875 10.625 9.34375 9.375 10.5938C8.125 11.8438 7.5 13.4062 7.5 15.2812C7.5 16.375 7.71875 17.4769 8.15625 18.5869C8.59375 19.6969 9.375 20.9625 10.5 22.3838C11.625 23.805 13.1562 25.4769 15.0938 27.3994C17.0312 29.3219 19.5 31.6262 22.5 34.3125Z" fill="url(#paint0_linear_297_125)"/>
</g>
<defs>
<linearGradient id="paint0_linear_297_125" x1="22.5" y1="4.96875" x2="22.5" y2="39.375" gradientUnits="userSpaceOnUse">
<stop stop-color="#D4FF00"/>
<stop offset="1" stop-color="#7DFFE0"/>
</linearGradient>
</defs>
</svg>
